<svg width="24" height="24" viewBox="0 0 24 24" fill="none" xmlns="http://www.w3.org/2000/svg">
<path d="M13.2749 22C12.8916 22 12.6124 21.875 12.4374 21.625C12.2624 21.375 12.2416 21.0667 12.3749 20.7L16.0499 10.95C16.1499 10.6833 16.3333 10.4583 16.5999 10.275C16.8666 10.0917 17.1416 10 17.4249 10C17.7083 10 17.9874 10.0917 18.2624 10.275C18.5374 10.4583 18.7249 10.6833 18.8249 10.95L22.5749 20.6C22.7249 20.9833 22.7083 21.3125 22.5249 21.5875C22.3416 21.8625 22.0333 22 21.5999 22C21.4166 22 21.2416 21.9417 21.0749 21.825C20.9083 21.7083 20.7916 21.5583 20.7249 21.375L19.8999 18.85H15.0999L14.1499 21.4C14.0833 21.5667 13.9666 21.7083 13.7999 21.825C13.6333 21.9417 13.4583 22 13.2749 22ZM15.6499 17.1H19.1999L17.4499 12.25H17.3999L15.6499 17.1ZM7.22494 8.55C7.47494 8.98333 7.74994 9.40417 8.04994 9.8125C8.34994 10.2208 8.67494 10.6417 9.02494 11.075C9.77494 10.2917 10.3999 9.47917 10.8999 8.6375C11.3999 7.79583 11.8249 6.91667 12.1749 6H1.99994C1.71661 6 1.47911 5.90417 1.28744 5.7125C1.09577 5.52083 0.999939 5.28333 0.999939 5C0.999939 4.71667 1.09577 4.47917 1.28744 4.2875C1.47911 4.09583 1.71661 4 1.99994 4H7.99994V3C7.99994 2.71667 8.09577 2.47917 8.28744 2.2875C8.47911 2.09583 8.71661 2 8.99994 2C9.28327 2 9.52077 2.09583 9.71244 2.2875C9.90411 2.47917 9.99994 2.71667 9.99994 3V4H15.9999C16.2833 4 16.5208 4.09583 16.7124 4.2875C16.9041 4.47917 16.9999 4.71667 16.9999 5C16.9999 5.28333 16.9041 5.52083 16.7124 5.7125C16.5208 5.90417 16.2833 6 15.9999 6H14.1749C13.8083 7.15 13.3208 8.27917 12.7124 9.3875C12.1041 10.4958 11.3583 11.55 10.4749 12.55L12.9249 15.025L12.1749 17.05L8.99994 14L4.67494 18.325C4.49161 18.5083 4.26661 18.6 3.99994 18.6C3.73327 18.6 3.50827 18.5 3.32494 18.3C3.12494 18.1167 3.02494 17.8917 3.02494 17.625C3.02494 17.3583 3.12494 17.125 3.32494 16.925L7.72494 12.525C7.29161 12.0083 6.88327 11.4875 6.49994 10.9625C6.11661 10.4375 5.76661 9.9 5.44994 9.35C5.24994 8.98333 5.23327 8.66667 5.39994 8.4C5.56661 8.13333 5.86661 8 6.29994 8C6.48327 8 6.66244 8.05417 6.83744 8.1625C7.01244 8.27083 7.14161 8.4 7.22494 8.55Z" fill="url(#paint0_linear_14_50)"/>
<defs>
<linearGradient id="paint0_linear_14_50" x1="11.8381" y1="2" x2="11.8381" y2="22" gradientUnits="userSpaceOnUse">
<stop stop-color="#6791CE"/>
<stop offset="1" stop-color="#224E8E"/>
</linearGradient>
</defs>
</svg>
