<svg width="132" height="40" viewBox="0 0 132 40" fill="none" xmlns="http://www.w3.org/2000/svg">
<path d="M21.64 39L19.912 31.848H10.216L8.53598 39H0.375977L10.408 5.73599H19.96L29.992 39H21.64ZM11.56 26.136H18.568L15.064 11.448L11.56 26.136Z" fill="#141414"/>
<path d="M55.1365 3.38399V39H48.4165L48.0325 36.024C46.2405 38.552 43.8245 39.816 40.7845 39.816C37.6165 39.816 35.2005 38.6 33.5365 36.168C31.9045 33.736 31.0885 30.408 31.0885 26.184C31.0885 23.592 31.5205 21.272 32.3845 19.224C33.2485 17.176 34.4645 15.576 36.0325 14.424C37.6325 13.272 39.4565 12.696 41.5045 12.696C43.9365 12.696 45.9525 13.496 47.5525 15.096V2.56799L55.1365 3.38399ZM43.1365 34.248C44.8965 34.248 46.3685 33.288 47.5525 31.368V20.376C46.9445 19.64 46.3205 19.096 45.6805 18.744C45.0725 18.392 44.3685 18.216 43.5685 18.216C42.1605 18.216 41.0405 18.872 40.2085 20.184C39.3765 21.496 38.9605 23.512 38.9605 26.232C38.9605 29.208 39.3125 31.288 40.0165 32.472C40.7525 33.656 41.7925 34.248 43.1365 34.248Z" fill="#141414"/>
<path d="M74.8937 12.792C75.8217 12.792 76.6697 12.904 77.4377 13.128L76.2377 20.472C75.2777 20.248 74.5097 20.136 73.9337 20.136C72.4297 20.136 71.2777 20.664 70.4777 21.72C69.7097 22.744 69.1017 24.296 68.6537 26.376V39H61.0697V13.512H67.6937L68.3177 18.456C68.8937 16.696 69.7577 15.32 70.9097 14.328C72.0937 13.304 73.4217 12.792 74.8937 12.792Z" fill="#141414"/>
<path d="M87.9193 13.512V39H80.3354V13.512H87.9193ZM84.0794 0.071991C85.3914 0.071991 86.4633 0.487991 87.2953 1.31999C88.1593 2.11999 88.5914 3.14399 88.5914 4.39199C88.5914 5.63999 88.1593 6.67999 87.2953 7.51199C86.4633 8.31199 85.3914 8.71199 84.0794 8.71199C82.7674 8.71199 81.6953 8.31199 80.8633 7.51199C80.0313 6.67999 79.6153 5.63999 79.6153 4.39199C79.6153 3.14399 80.0313 2.11999 80.8633 1.31999C81.6953 0.487991 82.7674 0.071991 84.0794 0.071991Z" fill="#141414"/>
<path d="M116.106 25.752C116.106 26.808 116.058 27.72 115.962 28.488H100.17C100.426 30.632 101.034 32.136 101.994 33C102.954 33.864 104.282 34.296 105.978 34.296C107.002 34.296 107.994 34.12 108.954 33.768C109.914 33.384 110.954 32.808 112.074 32.04L115.194 36.264C112.218 38.632 108.906 39.816 105.258 39.816C101.13 39.816 97.9622 38.6 95.7542 36.168C93.5462 33.736 92.4422 30.472 92.4422 26.376C92.4422 23.784 92.9062 21.464 93.8342 19.416C94.7622 17.336 96.1222 15.704 97.9142 14.52C99.7062 13.304 101.85 12.696 104.346 12.696C108.026 12.696 110.906 13.848 112.986 16.152C115.066 18.456 116.106 21.656 116.106 25.752ZM108.666 23.592C108.602 19.688 107.226 17.736 104.538 17.736C103.226 17.736 102.202 18.216 101.466 19.176C100.762 20.136 100.33 21.72 100.17 23.928H108.666V23.592Z" fill="#141414"/>
<path d="M127.135 39.816C124.927 39.816 123.199 39.192 121.951 37.944C120.735 36.664 120.127 34.856 120.127 32.52V3.38399L127.711 2.56799V32.232C127.711 33.288 128.143 33.816 129.007 33.816C129.455 33.816 129.871 33.736 130.255 33.576L131.743 38.952C130.367 39.528 128.831 39.816 127.135 39.816Z" fill="#141414"/>
</svg>
